<?xml version="1.0" encoding="utf-8" ?>
<svg baseProfile="full" height="200mm" version="1.1" viewBox="0,0,200,200" width="200mm" xmlns="http://www.w3.org/2000/svg" xmlns:ev="http://www.w3.org/2001/xml-events" xmlns:xlink="http://www.w3.org/1999/xlink"><defs /><rect fill="#1a1a1a" height="200" width="200" x="0" y="0" /><text alignment-baseline="middle" fill="#e1ed5e" style="dominant-baseline: central; font-size:9.0px; font-family:Arial;" text-anchor="middle" x="100.0" y="100.0">2023</text><line stroke="#e1ed5e" stroke-width="0.3" x1="100.0" x2="100.0" y1="15.0" y2="10.0" /><path d="M 100.0 14.0 a86.0,86.0 0 0,1 42.46469731375804,11.215312516191453" fill="none" id="id49" stroke="none" /><text fill="#e1ed5e" style="font-size:6.75px; font-family:Arial;" text-anchor="middle"><textPath startOffset="22.20632615414155" xlink:href="#id49">January</textPath></text><path d="M 100.72285384407766 79.0124445844662 l 0.1346968309537438 -3.9108282083573864 a24.913147136455876,24.913147136455876 0 0,0 0.4284576896364054,0.01845028940043504 l -0.2019953529794807 3.9079301924327563" fill="#ff2e04" stroke="none" /><path d="M 101.08401301168833 79.027996857942 l 0.19923722804180638 -3.8545697583462646 a24.859715468139505,24.859715468139505 0 0,0 0.4271585140930318,0.025767368089394303 l -0.26555779097445004 3.850569120876566" fill="#ff2d04" stroke="none" /><path d="M 101.44485096284872 79.0497635885617 l 0.26547810704736396 -3.849413709589471 a24.858557312376846,24.858557312376846 0 0,0 0.42663180636567277,0.033114839199370014 l -0.3317001027753779 3.8442736082016364" fill="#ff2d04" stroke="none" /><path d="M 101.80526077348638 79.07773832637324 l 0.3152181153155555 -3.653253862134772 a24.66682781725918,24.66682781725918 0 0,0 0.4227129298010941,0.04014168615203274 l -0.3780561722068938 3.6472866314675607" fill="#ff2a04" stroke="none" /><path d="M 102.16513564639614 79.11191278185805 l 0.36783790294233304 -3.5487061568576324 a24.567719174845504,24.567719174845504 0 0,0 0.4202639403060516,0.04722155047117506 l -0.4288685467581098 3.541848652915857" fill="#ff2904" stroke="none" /><path d="M 102.52436894288641 79.15227682838746 l 0.3279977426523289 -2.7087982360894016 a23.72858395564917,23.72858395564917 0 0,0 0.4050641838792981,0.05258895648745117 l -0.3745766550394731 2.702750956437814" fill="#ff1d02" stroke="none" /><path d="M 102.88285421437855 79.19881850522331 l 0.8486241953565326 -6.123232253794448 a27.181758346850284,27.181758346850284 0 0,0 0.46290666434885536,0.06822040928964915 l -0.9538998401340437 6.1077173603438295" fill="#ff4e07" stroke="none" /><path d="M 103.2404852339499 79.25152402106235 l 0.6012416248220993 -3.84968500379583 a24.896352925476492,24.896352925476492 0 0,0 0.4228477124845923,0.06977349565896665 l -0.6674185434455668 3.838765245197239" fill="#ff2e04" stroke="none" /><path d="M 103.59715602781102 79.31037775812273 l 1.0098472393649935 -5.808299040389007 a26.895432909416996,26.895432909416996 0 0,0 0.45543557917325167,0.08322794102295093 l -1.109677939641146 5.790055618015317" fill="#ff4a06" stroke="none" /><path d="M 103.95276090670814 79.375362276772 l 0.6945807009686439 -3.6241694514618006 a24.690128258349162,24.690128258349162 0 0,0 0.4167148004439945,0.08358906871975962 l -0.7568619108797637 3.6116764266648325" fill="#ff2b04" stroke="none" /><path d="M 104.307194497241 79.44645832069477 l 0.8683203231860289 -4.143545866113977 a25.233550817959802,25.233550817959802 0 0,0 0.4243529555621048,0.09274711991706674 l -0.9395160029016617 4.127985248101039" fill="#ff3204" stroke="none" /><path d="M 104.66035177308747 79.52364482259891 l 1.669217572301232 -7.334101274538628 a28.521657317963133,28.521657317963133 0 0,0 0.47777349776340144,0.11307355067798759 l -1.7952147570271568 7.304281811719772" fill="#ff6008" stroke="none" /><path d="M 105.01212808612495 79.60689891045804 l 3.4440208359062625 -14.012863169948583 a35.429886130453625,35.429886130453625 0 0,0 0.5909892469714104,0.1506563179775092 l -3.684718971562698 13.951503855802205" fill="#ffbb11" stroke="none" /><path d="M 105.36241919743992 79.69619591428918 l 0.49479255323176524 -1.8734400825438173 a22.937678356594663,22.937678356594663 0 0,0 0.380876993297722,0.10410806998004256 l -0.526967435753198 1.8646454717374812" fill="#ff1202" stroke="none" /><path d="M 105.71112130821622 79.79150937346287 l 1.5036602973378013 -5.320619784512652 a26.529013400339835,26.529013400339835 0 0,0 0.4383727220982957,0.1279730185520254 l -1.595023237159524 5.293948437041923" fill="#ff4406" stroke="none" /><path d="M 106.0581310904928 79.89281104454417 l 0.5870243871773745 -1.9483583465137595 a23.034870481768017,23.034870481768017 0 0,0 0.378665439429544,0.11765319527966885 l -0.6204751993176367 1.93796501635157" fill="#ff1302" stroke="none" /><path d="M 106.40334571778207 80.00007090966166 l 1.6821555914854185 -5.253970975703849 a26.51668908381686,26.51668908381686 0 0,0 0.4335064218919667,0.14292025154157126 l -1.7723448356198026 5.224236999903042" fill="#ff4406" stroke="none" /><path d="M 106.74666289553966 80.11325718540242 l 0.6367966598282047 -1.8770481933476437 a22.982125098503627,22.982125098503627 0 0,0 0.3735339467137332,0.1303186594771147 l -0.6690126106052114 1.8658086806983214" fill="#ff1202" stroke="none" /><path d="M 107.08798089147638 80.2323363322302 l 7.348123424764876 -20.493174949820872 a42.77074039598892,42.77074039598892 0 0,0 0.6908852896243941,0.2544588827894704 l -7.699791040161847 20.363652799225076" fill="#e8ff1a" stroke="none" /><path d="M 107.4271985657038 80.35727306442388 l 1.0486110506108435 -2.773263747638145 a23.964890714584122,23.964890714584122 0 0,0 0.38459864855990517,0.14921830054274102 l -1.0961928641704157 2.7548027432048574" fill="#ff2003" stroke="none" /><path d="M 108.76106565485865 80.91482961587045 l 4.199556347636175 -9.148344686578238 a31.06620504566719,31.06620504566719 0 0,0 0.4840732944369844,0.22727890245239557 l -4.356407853372758 9.07470080148584" fill="#ff820c" stroke="none" /><path d="M 109.41281617654863 81.2277094730956 l 2.5710331959260033 -5.127496511456933 a26.735977002181624,26.735977002181624 0 0,0 0.40962000973905527,0.20982327871583883 l -2.658913693253814 5.0824807074285925" fill="#ff4706" stroke="none" /><path d="M 109.73455568895987 81.39251694778311 l 1.8986038428938354 -3.6291578124708144 a25.09578844425212,25.09578844425212 0 0,0 0.38104364079654074,0.2035403165365516 l -1.9607925302186873 3.5959387694325087" fill="#ff3004" stroke="none" /><path d="M 110.05341064243156 81.56283822128135 l 2.0461441159276226 -3.7524668423179515 a25.2740745367671,25.2740745367671 0 0,0 0.3801653008172662,0.2115615783085707 l -2.110433505816924 3.716689866449201" fill="#ff3304" stroke="none" /><path d="M 110.36928655335952 81.73862282372117 l 2.9177362997068945 -5.138432889831274 a26.909033565476427,26.909033565476427 0 0,0 0.4008206488324373,0.23218119098647338 l -3.00575368100466 5.087447541454751" fill="#ff4a06" stroke="none" /><line stroke="#e1ed5e" stroke-width="0.3" x1="143.23703022742887" x2="145.7803849466894" y1="26.81831364943548" y2="22.513508569990506" /><path d="M 143.74570117128098 25.957352633546492 a86.0,86.0 0 0,1 28.547481713284135,27.462654790039103" fill="none" id="id50" stroke="none" /><text fill="#e1ed5e" style="font-size:6.75px; font-family:Arial;" text-anchor="middle"><textPath startOffset="19.985693538727396" xlink:href="#id50">February</textPath></text><path d="M 110.68208982089419 81.91981866633111 l 0.9658234702970557 -1.6347235205912516 a22.898719559216396,22.898719559216396 0 0,0 0.3376339147894064,0.20342065584895988 l -0.9938194513040997 1.617856255283677" fill="#ff1101" stroke="none" /><path d="M 110.99172775467656 82.1063720568725 l 2.230928696258131 -3.6317682669592433 a25.262251000666215,25.262251000666215 0 0,0 0.36856523212232173,0.23079551454275848 l -2.293113080752716 3.5928284110935405" fill="#ff3304" stroke="none" /><path d="M 111.2981086023043 82.29822771554956 l 1.021674224059128 -1.6007497449173649 a22.89900446707211,22.89900446707211 0 0,0 0.3304358776302817,0.21492468648265176 l -1.0490771274736899 1.582926134275185" fill="#ff1101" stroke="none" /><path d="M 111.60114157652 82.49532879139004 l 1.1415897581220238 -1.7225161195763066 a23.066467749094894,23.066467749094894 0 0,0 0.3290764502024634,0.22219388814232408 l -1.171070902731029 1.7026103191353124" fill="#ff1302" stroke="none" /><path d="M 111.90073688211348 82.69761687909136 l 5.952398267775598 -8.654142708766118 a31.50358182535404,31.50358182535404 0 0,0 0.44415378905075126,0.31115811322881093 l -6.10048319641 8.550399752773371" fill="#ff880c" stroke="none" /><path d="M 112.19680574252982 82.90503203632743 l 1.2615176604640435 -1.768135399257981 a23.172033516723868,23.172033516723868 0 0,0 0.3227033205510897,0.23445768630891164 l -1.291766297368922 1.7461584781323944" fill="#ff1502" stroke="none" /><path d="M 112.48926042617603 83.11751280151076 l 1.1970973083504783 -1.6181886912386845 a23.012852852573364,23.012852852573364 0 0,0 0.31643094162728225,0.23832922493227354 l -1.2247744037361437 1.5973428768005637" fill="#ff1302" stroke="none" /><path d="M 112.77801427241765 83.33499621200491 l 3.429615342522424 -4.4728822065784435 a26.636393938644748,26.636393938644748 0 0,0 0.3614526247839253,0.28211950691038645 l -3.5061005224657795 4.413184310444833" fill="#ff4606" stroke="none" /><path d="M 113.34407831869373 83.78471172551755 l 2.5411053189454775 -3.087868213782725 a24.999018172959797,24.999018172959797 0 0,0 0.32991854619323163,0.2762972944873736 l -2.5938814020978262 3.043669761901532" fill="#ff2f04" stroke="none" /><path d="M 113.6212207817346 84.01681056812373 l 1.3626303740901433 -1.5989153794435225 a23.100783645931696,23.100783645931696 0 0,0 0.30042701284873136,0.2605273450854754 l -1.389951185585639 1.5752230409383758" fill="#ff1402" stroke="none" /><path d="M 114.16331599549186 84.49514656593476 l 3.8821682532003607 -4.249883981365081 a26.756104950504312,26.756104950504312 0 0,0 0.3373716976786292,0.3135502248964152 l -3.9547478346738365 4.182429170394025" fill="#ff4806" stroke="none" /><path d="M 114.42810811169701 84.74124197986012 l 1.3423398313340822 -1.4196205426626118 a22.95376526428732,22.95376526428732 0 0,0 0.28475430826352743,0.2739334189389706 l -1.3665773832100279 1.3963040369613393" fill="#ff1202" stroke="none" /><path d="M 114.68862486808459 84.99185889309783 l 3.393859412413046 -3.467684784377311 a25.852125253435503,25.852125253435503 0 0,0 0.31535185616764094,0.3139976350787672 l -3.4530470687480097 3.4087512986484247" fill="#ff3b05" stroke="none" /><path d="M 114.94478906791727 85.2469230424477 l 1.357130863663945 -1.3397215565983145 a22.907002367676416,22.907002367676416 0 0,0 0.2745957670181737,0.2829950755615984 l -1.3799908943852277 1.3161622854866017" fill="#ff1101" stroke="none" /><path d="M 115.19652480421416 85.50635884689758 l 4.0277020617008015 -3.8414090791148428 a26.565860904741946,26.565860904741946 0 0,0 0.312759473125692,0.33362999940686094 l -4.093228856796957 3.771509662829927" fill="#ff4506" stroke="none" /><path d="M 115.68641384162765 86.03803664274999 l 44.43766327212748 -39.55250910445703 a80.49039328786745,80.49039328786745 0 0,0 0.9122556431586384,1.0428658994635904 l -45.11191077886397 38.78172764879049" fill="#49f2ff" stroke="none" /><path d="M 115.9244219780498 86.31012108654704 l 1.4722282815510963 -1.265642604496197 a22.941470400318998,22.941470400318998 0 0,0 0.25485721692351804,0.30167055873318327 l -1.4937961119617313 1.2401130961339073" fill="#ff1202" stroke="none" /><path d="M 116.15771136456269 86.58626213691792 l 1.5120051296194403 -1.255229778447 a22.965136460578655,22.965136460578655 0 0,0 0.24988420528158406,0.3063284890342033 l -1.5333878269774335 1.2290171198046957" fill="#ff1202" stroke="none" /><path d="M 116.38621287248628 86.86637796730983 l 4.38069482403709 -3.5111462610173945 a26.614145990941257,26.614145990941257 0 0,0 0.28343548330240587,0.35993428047007464 l -4.44048438793346 3.4352195865942816" fill="#ff4606" stroke="none" /><path d="M 116.82858285166822 87.43820079747576 l 1.548038523702981 -1.155542879868891 a22.93176153240616,22.93176153240616 0 0,0 0.23339880001890534,0.31835570092693977 l -1.5676999362355126 1.1287247352704575" fill="#ff1201" stroke="none" /><path d="M 117.04232023915458 87.72973835380427 l 4.515221762656966 -3.250904315898858 a26.563776274896476,26.563776274896476 0 0,0 0.26397737518685316,0.3733772765459274 l -4.570511757647703 3.172700539021138" fill="#ff4506" stroke="none" /><path d="M 117.2510076193507 88.02491185347247 l 0.8736207313855271 -0.6064390843605284 a22.063476161155773,22.063476161155773 0 0,0 0.2138849499386881,0.3138497720184151 l -0.8839301469929485 0.5913112890717069" fill="#ff0500" stroke="none" /><path d="M 117.45458315368197 88.32363383020206 l 4.62416307627755 -3.0933664145446107 a26.56343418498334,26.56343418498334 0 0,0 0.25096546279757204,0.382237617591424 l -4.676725174433047 3.013310732975513" fill="#ff4506" stroke="none" /><path d="M 117.65298651832404 88.62581576622439 l 1.6197152834951372 -1.0436160488545392 a22.92681396533617,22.92681396533617 0 0,0 0.21089656019551334,0.33358771131082166 l -1.6374394399366063 1.0155806898295114" fill="#ff1101" stroke="none" /><line stroke="#e1ed5e" stroke-width="0.3" x1="172.23445277983987" x2="176.4835382374775" y1="55.19839476539836" y2="52.563006222186495" /><path d="M 173.08426987136738 54.67131705675599 a86.0,86.0 0 0,1 12.851231095245387,41.99856678651699" fill="none" id="id51" stroke="none" /><text fill="#e1ed5e" style="font-size:6.75px; font-family:Arial;" text-anchor="middle"><textPath startOffset="22.20632615414155" xlink:href="#id51">March</textPath></text><path d="M 117.84615892207809 88.93136811851018 l 7.783186916416842 -4.8273262172997775 a30.158661309608085,30.158661309608085 0 0,0 0.26982552404342186,0.44352221568284295 l -7.865128238746488 4.692636228409853" fill="#ff760a" stroke="none" /><path d="M 118.03404312379186 89.2402003453031 l 7.806706086375204 -4.657779338549039 a30.09063079690634,30.09063079690634 0 0,0 0.26155969243145133,0.4470903001853663 l -7.885725453276983 4.522709626009777" fill="#ff750a" stroke="none" /><path d="M 118.21658344932153 89.55222093294921 l 3.3099392920204216 -1.8983534725150593 a24.815683952251632,24.815683952251632 0 0,0 0.20932898991635107,0.37237291550480933 l -3.3421259232292058 1.841097047075456" fill="#ff2c04" stroke="none" /><path d="M 118.3937258080291 89.86733742301442 l 8.01838863322132 -4.417138065421343 a30.154543405455406,30.154543405455406 0 0,0 0.24653766068961647,0.4567968426762936 l -8.093234393129402 4.27846023941259" fill="#ff760a" stroke="none" /><path d="M 118.56541770881063 90.18545643968196 l 4.102653470068853 -2.1688535009784227 a25.64065631179194,25.64065631179194 0 0,0 0.2029159622192068,0.39196905215393685 l -4.139378865448177 2.097911726564141" fill="#ff3805" stroke="none" /><path d="M 118.73160827565052 90.50648371742162 l 7.487069459539101 -3.7945815851448237 a29.393751157753208,29.393751157753208 0 0,0 0.2248481812015343,0.45328021288029846 l -7.551277653694043 3.6651417837655758" fill="#ff6c09" stroke="none" /><path d="M 118.89224826269711 90.83032412892265 l 8.155655511788936 -3.9584869158708296 a30.06555764915175,30.06555764915175 0 0,0 0.22197230290853762,0.46753027992033663 l -8.22258600853923 3.8175142203099526" fill="#ff750a" stroke="none" /><path d="M 119.04729006885535 91.15688171328212 l 8.180483367072176 -3.7979671541745335 a30.01913868521452,30.01913868521452 0 0,0 0.21356141744414323,0.47055427469954464 l -8.244647101479666 3.656590870632926" fill="#ff740a" stroke="none" /><path d="M 119.196687751892 91.48605970444005 l 3.5367502143592278 -1.5685872768543376 a24.868987997381144,24.868987997381144 0 0,0 0.17018593390640652,0.39281259961889686 l -3.5632268581083153 1.507475532648838" fill="#ff2d04" stroke="none" /><path d="M 119.34039704204932 91.81776055985345 l 8.34912513952633 -3.5322201947986853 a30.06556507339803,30.06556507339803 0 0,0 0.19754266436384385,0.4783652307006326 l -8.408689490776373 3.3879803936447495" fill="#ff750a" stroke="none" /><path d="M 119.47837535516314 92.15188598940014 l 8.272564145635961 -3.3331335591981066 a29.918805798262134,29.918805798262134 0 0,0 0.18835519554128738,0.4793434277692891 l -8.328712891058949 3.1902411265330333" fill="#ff730a" stroke="none" /><path d="M 119.61058180528143 92.48833698450437 l 5.164501901547289 -1.9782175925480108 a26.530409092874777,26.530409092874777 0 0,0 0.15968199878638717,0.42786836785253723 l -5.197788488835301 1.8890260876661402" fill="#ff4406" stroke="none" /><path d="M 119.7369772167798 92.82701384747503 l 8.745088276688758 -3.178217030010403 a30.30471022960561,30.30471022960561 0 0,0 0.17395902167287644,0.49180557984301176 l -8.798500379171443 3.0272138237407766" fill="#ff780b" stroke="none" /><path d="M 119.85752413597 93.16781622104841 l 9.098467053877267 -3.130420418637409 a30.621935082295664,30.621935082295664 0 0,0 0.1671997117371998,0.49990585651322655 l -9.151004059386235 2.973341459201869" fill="#ff7c0b" stroke="none" /><path d="M 119.97218684219823 93.5106431181261 l 3.6750046334744066 -1.1940813891630275 a24.864128545998938,24.864128545998938 0 0,0 0.1287541728695138,0.4081859132469169 l -3.6950142901121263 1.1306453094896916" fill="#ff2d04" stroke="none" /><path d="M 120.08093135843002 93.85539295169968 l 10.646205532656618 -3.2576551548319284 a32.13346349306322,32.13346349306322 0 0,0 0.1572919310696809,0.5303101975594721 l -10.700703360838 3.0739155705259265" fill="#ff910d" stroke="none" /><path d="M 120.18372546131832 94.20196356495316 l 9.609184392236001 -2.760362616110851 a30.99780108105849,30.99780108105849 0 0,0 0.14290462990470257,0.5141039874000222 l -9.655275792707068 2.594547325291877" fill="#ff810b" stroke="none" /><path d="M 120.28053869075195 94.5502522615342 l 10.65767558467309 -2.863910288603916 a32.03576146033015,32.03576146033015 0 0,0 0.13852212628218888,0.5337822592968523 l -10.705394042825581 2.6800316037582133" fill="#ff8f0d" stroke="none" /><path d="M 120.37134235888165 94.90015583598534 l 33.22233897900552 -8.317014587069115 a55.247577124191864,55.247577124191864 0 0,0 0.22300868596153117,0.9245149769750941 l -33.36058046522787 7.743914378434615" fill="#5fff29" stroke="none" /><path d="M 120.45610955862082 95.25157060432595 l 3.7063195578901547 -0.8603393860408044 a24.80486379839964,24.80486379839964 0 0,0 0.09296581002781,0.41674749759119983 l -3.7205797549200024 0.7964137188996406" fill="#ff2c04" stroke="none" /><path d="M 120.53481517161879 95.60439243477599 l 3.6407311093260146 -0.7793216093426518 a24.723206303873404,24.723206303873404 0 0,0 0.08549603090600351,0.41690900999503666 l -3.653606436147015 0.7165369431842034" fill="#ff2b04" stroke="none" /><path d="M 120.6074358757038 95.95851677861258 l 6.757580431918331 -1.325281228460512 a27.886309870195745,27.886309870195745 0 0,0 0.0883256054210198,0.47183891597869826 l -6.779391761249211 1.2087642350192511" fill="#ff5708" stroke="none" /><path d="M 120.67395015179393 96.31383870115 l 7.718845925620122 -1.376268730160303 a28.840580210742022,28.840580210742022 0 0,0 0.0829347119811145,0.48948536477740306 l -7.74139249912146 1.2431975770670618" fill="#ff6409" stroke="none" /><path d="M 120.73433829027371 96.67025291283417 l 10.921986662632087 -1.7539722158880218 a32.061926197223535,32.061926197223535 0 0,0 0.08281764481826172,0.5456648038717736 l -10.95056020088965 1.565708299624166" fill="#ff900d" stroke="none" /><path d="M 120.78858239683441 97.02765380044208 l 2.7718064514761407 -0.3963121782276876 a23.799995419113454,23.799995419113454 0 0,0 0.05449519057886408,0.4060524675053982 l -2.7782176411128408 0.3485413686576251" fill="#ff1e03" stroke="none" /><path d="M 120.83666639777658 97.38593545837742 l 12.470004939699065 -1.5644248040657829 a33.56775430073708,33.56775430073708 0 0,0 0.06699108253362625,0.5739386843834525 l -12.49508637523628 1.3495423813574776" fill="#ffa30f" stroke="none" /><path d="M 120.87857604477298 97.74499172005257 l 8.994682588407258 -0.9714783071825089 a30.046993145102018,30.046993145102018 0 0,0 0.05111261713092457,0.514697079192824 l -9.010072331220412 0.8165056972852499" fill="#ff750a" stroke="none" /><path d="M 120.91429891909075 98.10471618934814 l 9.285349301116772 -0.841451691722273 a30.323398124785406,30.323398124785406 0 0,0 0.04263399914196448,0.5202427774918202 l -9.298457784078233 0.681494997022684" fill="#ff780b" stroke="none" /><path d="M 120.94382443527127 98.46500227214037 l 9.338486119370106 -0.6844287211814652 a30.36353382415241,30.36353382415241 0 0,0 0.03371712684746065,0.5215890287766359 l -9.348883837221981 0.5235806281517941" fill="#ff790b" stroke="none" /><path d="M 120.96714384426684 98.82574320788733 l 8.66655776578948 -0.48536722008027694 a29.680138526895433,29.680138526895433 0 0,0 0.02417714653929372,0.5103413512358449 l -8.673628520562271 0.33611476222143233" fill="#ff700a" stroke="none" /><path d="M 120.98425023603335 99.18683210126433 l 1.8744421738692516 -0.07263715342135109 a22.875849039564976,22.875849039564976 0 0,0 0.01186091590139628,0.3936060552854281 l -1.875414784226293 0.04036095071092395" fill="#ff1101" stroke="none" /><line stroke="#e1ed5e" stroke-width="0.3" x1="184.98032266829074" x2="189.97916517819016" y1="98.17113171792111" y2="98.06355123074" /><path d="M 185.9800911702706 98.14961562048488 a86.0,86.0 0 0,1 -9.607161424134198,41.387399972396054" fill="none" id="id52" stroke="none" /><text fill="#e1ed5e" style="font-size:6.75px; font-family:Arial;" text-anchor="middle"><textPath startOffset="21.466115282336823" xlink:href="#id52">April</textPath></text><path d="M 120.99513854157772 99.54816195383933 l 3.815763668559138 -0.0821193533540294 a24.816647214832827,24.816647214832827 0 0,0 0.0055151959958947136,0.4271580078412795 l -3.816611871672748 0.016425087452287174" fill="#ff2c04" stroke="none" /><path d="M 120.99980553446 99.90962569577887 l 34.345330083561976 -0.14780781205109275 a55.34564813332441,55.34564813332441 0 0,0 -0.00410006546739168,0.9527108201367002 l -34.34278572080508 -0.44341248628929214" fill="#5eff2a" stroke="none" /><path d="M 120.99824983174949 100.27111621757518 l 3.8378974753002693 0.0495525224855404 a24.83821735749825,24.83821735749825 0 0,0 -0.009199528458227675,0.4274659386008862 l -3.8364758841570343 -0.11560827687654145" fill="#ff2d04" stroke="none" /><path d="M 120.9904718944345 100.63252640178507 l 9.042466209522665 0.2724854707191682 a30.0465708134139,30.0465708134139 0 0,0 -0.020027995548718255,0.516833572714761 l -9.036436081122744 -0.42809629044793535" fill="#ff750a" stroke="none" /><path d="M 120.9764740272857 100.99374915477107 l 10.814033316134664 0.5123090016747446 a31.826161696356998,31.826161696356998 0 0,0 -0.030634422148900744,0.5469981865094011 l -10.803612543098232 -0.6983789045195691" fill="#ff8c0c" stroke="none" /><path d="M 120.95626037817324 101.35467743843564 l 9.07283448546677 0.5864960617173844 a30.091771182288138,30.091771182288138 0 0,0 -0.037863245262922125,0.5166138991241532 l -9.06139468153951 -0.742583097338308" fill="#ff750a" stroke="none" /><path d="M 120.92983693683757 101.71520430193887 l 9.413882680310795 0.7714695589815053 a30.44544082608592,30.44544082608592 0 0,0 -0.04729975230826029,0.5219488252968626 l -9.39920833172546 -0.9333997728269384" fill="#ff7a0b" stroke="none" /><path d="M 120.89721153311464 102.0752229133903 l 4.469254754181298 0.4438247589616664 a25.491237966801528,25.491237966801528 0 0,0 -0.047119580464773374,0.43626879452278666 l -4.460952872215473 -0.5206898753692445" fill="#ff3605" stroke="none" /><path d="M 120.8583938346157 102.4346265915055 l 13.38560827832765 1.5623905712150052 a34.47648222934514,34.47648222934514 0 0,0 -0.07387569841897106,0.5888620033472493 l -13.356731070661832 -1.7925703288496495" fill="#ffaf10" stroke="none" /><path d="M 120.81339534386255 102.79330883721812 l 7.281238614015729 0.9771951106680629 a28.346519314515362,28.346519314515362 0 0,0 -0.06906555052873417,0.4830442995378146 l -7.263339012470394 -1.1023848821862867" fill="#ff5e08" stroke="none" /><path d="M 120.76222939487914 103.15116336523771 l 1.8570407014399577 0.2818502057190562 a22.878307670555728,22.878307670555728 0 0,0 -0.06244497423137773,0.3888449141471718 l -1.8519139728472915 -0.313774349559433" fill="#ff1101" stroke="none" /><path d="M 120.70491114924044 103.5080841355445 l 7.216512204062906 1.2227114521071043 a28.319362792381774,28.319362792381774 0 0,0 -0.08556972951732528,0.4799204861424781 l -7.1943960322063925 -1.3467506889828007" fill="#ff5d08" stroke="none" /><path d="M 120.64145759157962 103.86396538481128 l 1.6197074057784708 0.30320016508928854 a22.64784174617704,22.64784174617704 0 0,0 -0.07502913658276614,0.3825719509997071 l -1.6142483362200406 -0.33103584315694057" fill="#ff0d01" stroke="none" /><path d="M 120.5718875245553 104.21870165774334 l 0.8102459060159215 0.16615810011643603 a21.827107576104744,21.827107576104744 0 0,0 -0.07864614650528365,0.36740861382236506 l -0.8072657207861949 -0.18008053335497015" fill="#ff0200" stroke="none" /><path d="M 120.49622156327973 104.57218783832717 l 10.702466180001984 2.3874490992027844 a31.965523039753755,31.965523039753755 0 0,0 -0.12442113157158793,0.5360029784068511 l -10.659784482499843 -2.5713207349582" fill="#ff8e0d" stroke="none" /><path d="M 120.41448212921028 104.9243191809786 l 9.772704222075838 2.3573419372681506 a31.052999991116188,31.052999991116188 0 0,0 -0.129814383638837,0.5185439333370171 l -9.73067852414194 -2.525213710002564" fill="#ff820c" stroke="none" /><path d="M 120.32669344350535 105.2749913415812 l 9.363676880336028 2.429972912535782 a30.673841691644384,30.673841691644384 0 0,0 -0.13702724262290256,0.5099293451852825 l -9.320461561371348 -2.5907931908966124" fill="#ff7d0b" stroke="none" /><path d="M 120.23288151984713 105.62410040840565 l 6.975172143560853 1.9388769940069697 a28.239631926430846,28.239631926430846 0 0,0 -0.1342153903754373,0.46722138130193036 l -6.940764116299316 -2.058655850813482" fill="#ff5c08" stroke="none" /><path d="M 120.13307415673323 105.97154293290107 l 0.7247850526507835 0.21497387956432146 a21.755994141141937,21.755994141141937 0 0,0 -0.10958103417363096,0.35811715999563054 l -0.7209772459710199 -0.2274180121120091" fill="#ff0000" stroke="none" /><path d="M 120.02730092923936 106.31721596034902 l 9.110238747950843 2.8736446226321797 a30.552710791280546,30.552710791280546 0 0,0 -0.16252259751645567,0.500193122795359 l -9.05942389941814 -3.030036645405334" fill="#ff7b0b" stroke="none" /><path d="M 119.9155931802556 106.66101706037122 l 0.8364513066084905 0.2797615101423481 a21.88199619663816,21.88199619663816 0 0,0 -0.12254873285666658,0.35618398147176344 l -0.8315117428085932 -0.2941181947034119" fill="#ff0200" stroke="none" /><path d="M 119.79798401119884 107.00284435728193 l 38.33072244781601 13.558152347854831 a61.65793622970978,61.65793622970978 0 0,0 -0.3625361543264771,0.99754379362378 l -38.0916620324843 -14.215943938484742" fill="#31ff43" stroke="none" /><path d="M 119.67450827220406 107.3425965602758 l 3.0703340107012655 1.1458595881515947 a24.27718555059488,24.27718555059488 0 0,0 -0.14948471271722757,0.39025741454760754 l -3.050155018390531 -1.1985405695323461" fill="#ff2503" stroke="none" /><path d="M 119.54520255179757 107.68017299344265 l 0.7017057553850162 0.2757311712461956 a21.753935438838933,21.753935438838933 0 0,0 -0.13994760987621924,0.3473384906928246 l -0.6968555312514045 -0.2877690297818337" fill="#ff0000" stroke="none" /><path d="M 119.41010516605496 108.01547362559984 l 6.509419071374895 2.688088314731509 a28.042609987396382,28.042609987396382 0 0,0 -0.18808448102531136,0.4445761538863201 l -6.462183609157274 -2.7997389942839925" fill="#ff5908" stroke="none" /><path d="M 119.12269723197855 108.67885076344098 l 3.70014072777387 1.6793116991036905 a25.063388879750185,25.063388879750185 0 0,0 -0.18168018931010868,0.3913229647455712 l -3.67068592162393 -1.7427547311280922" fill="#ff3004" stroke="none" /><path d="M 118.97047184881838 109.00673069616215 l 7.864153201186274 3.733713668321757 a29.70548811547871,29.70548811547871 0 0,0 -0.2232816456999344,0.4600263239807587 l -7.798718298871625 -3.868528948267791" fill="#ff700a" stroke="none" /><path d="M 118.81262510543309 109.33194174019688 l 4.605060818315981 2.2843255008668173 a26.140498821544412,26.140498821544412 0 0,0 -0.20342452808891687,0.40137589280941327 l -4.565057620440796 -2.363255605378925" fill="#ff3f05" stroke="none" /><path d="M 118.64920377521936 109.65438752849418 l 9.24567148495568 4.78633278679269 a31.41112014884322,31.41112014884322 0 0,0 -0.25270618871398026,0.47802487423312773 l -9.161912788016808 -4.944772676111953" fill="#ff870c" stroke="none" /><line stroke="#e1ed5e" stroke-width="0.3" x1="174.80103733775053" x2="179.2010983576182" y1="140.37084112569926" y2="142.7455964860345" /><path d="M 175.68104954172406 140.8457921977663 a86.0,86.0 0 0,1 -30.038265399797805,32.042727171017184" fill="none" id="id53" stroke="none" /><text fill="#e1ed5e" style="font-size:6.75px; font-family:Arial;" text-anchor="middle"><textPath startOffset="22.206326154141568" xlink:href="#id53">May</textPath></text><path d="M 118.48025628344425 109.97397251340804 l 9.28413703022159 5.010738278186136 a31.550009407029528,31.550009407029528 0 0,0 -0.2620507582196543,0.47569824395676824 l -9.196509862550426 -5.169807040540709" fill="#ff890c" stroke="none" /><path d="M 118.30583269289576 110.29060199501025 l 10.576665664725486 5.945659977118649 a33.13329012044522,33.13329012044522 0 0,0 -0.28375981376505505,0.494759153485256 l -10.472753854808051 -6.126838976462221" fill="#ff9e0e" stroke="none" /><path d="M 118.12598468904814 110.60418214915192 l 5.883004250028101 3.441713634968813 a27.815800154859218,27.815800154859218 0 0,0 -0.24533419744934,0.41119422652176557 l -5.822889176880534 -3.5424699553766827" fill="#ff5608" stroke="none" /><path d="M 117.94076556474637 110.91462005526583 l 8.34197998807071 5.075008741953311 a30.764442833683585,30.764442833683585 0 0,0 -0.27912924765382185,0.4500452239052818 l -8.253386100748925 -5.217850297223865" fill="#ff7e0b" stroke="none" /><path d="M 117.75023020441432 111.22182372390056 l 8.610242416473879 5.443457437171275 a31.18663356270074,31.18663356270074 0 0,0 -0.2907710085342314,0.4512830624223533 l -8.515266544562596 -5.590862099515081" fill="#ff840c" stroke="none" /><path d="M 117.35343817320211 111.8261652097733 l 27.01150094750311 18.408022063455753 a53.68755817930784,53.68755817930784 0 0,0 -0.5270049780839311,0.7591899768184862 l -26.69063506225704 -18.870253302461258" fill="#6fff28" stroke="none" /><path d="M 117.14729908036423 112.12312394758627 l 5.936203635201456 4.196890257199082 a28.269965710342213,28.269965710342213 0 0,0 -0.2843422869939558,0.39492656735539267 l -5.863081555831897 -4.298450430005606" fill="#ff5d08" stroke="none" /><path d="M 116.93607887273984 112.41649034213515 l 5.895569685260022 4.3222687263367385 a28.31024957552241,28.31024957552241 0 0,0 -0.29151297655984637,0.39052927047170116 l -5.820295442005083 -4.423110876317755" fill="#ff5d08" stroke="none" /><path d="M 116.71984013943494 112.70617746262583 l 7.53867178069781 5.72898428927641 a30.468518004622762,30.468518004622762 0 0,0 -0.32092516533767124,0.41483903734658173 l -7.43893979814207 -5.857901320736244" fill="#ff7a0b" stroke="none" /><path d="M 116.27256486870786 113.27417163493432 l 7.08928141012758 5.783005873115023 a30.14882876878037,30.14882876878037 0 0,0 -0.3314992933921907,0.39931225396384584 l -6.988686116841845 -5.904179384192639" fill="#ff760a" stroke="none" /><path d="M 116.0416608686014 113.55231037782055 l 6.9516899432867465 5.872924289666125 a30.10039739680331,30.10039739680331 0 0,0 -0.33778019578347296,0.3929146786096436 l -6.849567237932495 -5.991716067437297" fill="#ff750a" stroke="none" /><path d="M 115.80600337817218 113.82643327865902 l 23.73878410297244 20.765699377839557 a52.53956469798439,52.53956469798439 0 0,0 -0.6013056865947202,0.6755733132869856 l -23.37781956672938 -21.17124686086741" fill="#7bff26" stroke="none" /><path d="M 115.56566222782051 114.09645910891815 l 0.5752518732784151 0.5209553175646137 a21.77608579461885,21.77608579461885 0 0,0 -0.25400621119929623,0.27567357542085236 l -0.5661992540833969 -0.5307801477868008" fill="#ff0100" stroke="none" /><path d="M 115.32070863581623 114.36230785411682 l 0.5273148529248981 0.4943281955020504 a21.722787187893864,21.722787187893864 0 0,0 -0.25808062329373743,0.27059650173074895 l -0.5187276782521961 -0.5033318138153065" fill="#ff0000" stroke="none" /><path d="M 115.07121518719521 114.62390073753431 l 7.584631768513818 7.359519503625201 a31.568309533136734,31.568309533136734 0 0,0 -0.38176515033756103,0.3867260817314396 l -7.456825993120721 -7.488986079337305" fill="#ff890c" stroke="none" /><path d="M 114.55890576462653 115.13401014063108 l 8.351721132410098 8.681629948915301 a33.04665698206139,33.04665698206139 0 0,0 -0.4133415515412546,0.39084023646107663 l -8.201043746478035 -8.8241048221223" fill="#ff9d0e" stroke="none" /><path d="M 114.29624159901734 115.38237550388516 l 6.5843688555940405 7.084605663057337 a30.67189488298652,30.67189488298652 0 0,0 -0.38982583633209966,0.3560966588080041 l -6.461443469795077 -7.196895088451924" fill="#ff7d0b" stroke="none" /><path d="M 113.48314897796784 116.09983520530334 l 6.061917214216603 7.23835866061819 a30.441434023058253,30.441434023058253 0 0,0 -0.40462445551292936,0.33297838019445913 l -5.936422630158982 -7.341632159669828" fill="#ff7a0b" stroke="none" /><path d="M 113.20401910651253 116.32954008644616 l 5.646855896958228 6.983522137307714 a29.980899897186184,29.980899897186184 0 0,0 -0.4040890036899851,0.3210327435468751 l -5.525809400550892 -7.079688794859715" fill="#ff740a" stroke="none" /><path d="M 112.92097659922987 116.55440617244103 l 5.3829107870926345 6.896606527780334 a29.748651904197615,29.748651904197615 0 0,0 -0.40638255225531517,0.311596812028368 l -5.263399506343825 -6.988242681636073" fill="#ff710a" stroke="none" /><path d="M 112.04921762599082 117.19931262002967 l 24.91671039992768 35.566648801055294 a64.42613227184148,64.42613227184148 0 0,0 -0.9137561879782603,0.6284898381652133 l -24.300797327326535 -35.9902794285856" fill="#35ff63" stroke="none" /><path d="M 111.45004920935366 117.60387380957326 l 4.024394300860941 6.187303489879137 a28.380953459050705,28.380953459050705 0 0,0 -0.41181871401104125,0.2628421878099226 l -3.917293784802969 -6.2556601065128685" fill="#ff5e08" stroke="none" /><path d="M 111.1453310114006 117.79835938074945 l 3.8019005927618323 6.07138478082365 a28.163529945080136,28.163529945080136 0 0,0 -0.41309300125780785,0.2537554609730236 l -3.6968283915717155 -6.135928708625052" fill="#ff5b08" stroke="none" /><line stroke="#e1ed5e" stroke-width="0.3" x1="143.8653032363475" x2="146.44561519142675" y1="172.8068346515853" y2="177.08958963109032" /><path d="M 144.38136562736335 173.6633856474863 a86.0,86.0 0 0,1 -40.68145358897372,12.25698825130547" fill="none" id="id54" stroke="none" /><text fill="#e1ed5e" style="font-size:6.75px; font-family:Arial;" text-anchor="middle"><textPath startOffset="21.466115282336833" xlink:href="#id54">June</textPath></text><path d="M 110.21172684928248 118.3499491758327 l 5.225357032695999 9.389698470272805 a31.745733733988992,31.745733733988992 0 0,0 -0.4797796051266671,0.26161409473390485 l -5.062954615700683 -9.47825321676648" fill="#ff8b0c" stroke="none" /><path d="M 109.89434966115114 118.52300852407294 l 5.143887562312479 9.629766121738369 a31.917507719854978,31.917507719854978 0 0,0 -0.4868318138738265,0.2546873959263136 l -4.977364845912156 -9.7168829366094" fill="#ff8e0d" stroke="none" /><path d="M 109.57404056367764 118.69057910512821 l 3.2522610042891134 6.349110510540775 a28.133611001104487,28.133611001104487 0 0,0 -0.43291745037048646,0.21707379683460815 l -3.1424896462358665 -6.404152148284685" fill="#ff5b08" stroke="none" /><path d="M 108.92500713936063 119.00905698771935 l 3.352244548496892 7.139827079590879 a28.887627922220112,28.887627922220112 0 0,0 -0.4519290618481919,0.20745846657377195 l -3.228847490881281 -7.196472616498726" fill="#ff6509" stroke="none" /><path d="M 108.59647513512805 119.15986991738527 l 2.8347498404754137 6.3181056582011 a27.924901859684955,27.924901859684955 0 0,0 -0.44025512704537767,0.19299490979113776 l -2.725574038772282 -6.365965121286692" fill="#ff5808" stroke="none" /><path d="M 107.59598834532513 119.57807347666477 l 5.477992453016994 14.119102593908904 a36.14455213509585,36.14455213509585 0 0,0 -0.5819785444837475,0.2200544875992436 l -5.2341436877729715 -14.211305331614778" fill="#ffc412" stroke="none" /><path d="M 106.57524785965236 119.94407469862006 l 2.434637492072364 7.384754619504099 a28.775735367673693,28.775735367673693 0 0,0 -0.4717557841143692,0.15104130451677492 l -2.3071603628670547 -7.425568770680581" fill="#ff6309" stroke="none" /><path d="M 106.2309692047433 120.05430185196036 l 4.760001964031765 15.320010910975077 a37.04245470649619,37.04245470649619 0 0,0 -0.6105390753372395,0.18395041507070634 l -4.495587914254279 -15.39967669515151" fill="#ffd013" stroke="none" /><path d="M 105.53697534728816 120.25689768951611 l 1.8890487385906745 6.911041611713589 a28.164565673898718,28.164565673898718 0 0,0 -0.46875166081384956,0.12380157403848505 l -1.7698066349653274 -6.942534535055659" fill="#ff5b08" stroke="none" /><path d="M 105.18746579009965 120.34920634021253 l 5.314789845423739 20.848668616919447 a42.515435719481516,42.515435719481516 0 0,0 -0.7107097170016733,0.17467515695750524 l -4.955126843678855 -20.93706503219098" fill="#ebff1a" stroke="none" /><path d="M 104.48393922423573 120.51570834832081 l 1.4632581408857241 6.694956321990384 a27.852996756181003,27.852996756181003 0 0,0 -0.4692680036722226,0.09833967277685096 l -1.3477986757841236 -6.719151975493776" fill="#ff5708" stroke="none" /><path d="M 103.7750983002368 120.6578951692458 l 4.163353430192964 22.78248455359455 a44.159773621939266,44.159773621939266 0 0,0 -0.7489308950007194,0.1302112359457645 l -3.7705735637201943 -22.85077436806132" fill="#d8ff1c" stroke="none" /><path d="M 103.06178313531738 120.77559828337769 l 0.8344770197979675 5.662308064883798 a26.723467875180134,26.723467875180134 0 0,0 -0.4556623709732966,0.06315065261191861 l -0.7368860576378404 -5.675833282988319" fill="#ff4706" stroke="none" /><path d="M 102.34483914955558 120.86867818915974 l 0.8044143063900545 7.159153451524299 a28.204204364036134,28.204204364036134 0 0,0 -0.4829196441895906,0.05005659565954674 l -0.6810620655948613 -7.171939415639604" fill="#ff5c08" stroke="none" /><path d="M 101.26447882468166 120.96189622390904 l 0.21649857240159398 3.589004828490649 a24.595528791538335,24.595528791538335 0 0,0 -0.42282282654405384,0.021855110477901535 l -0.15468767744406056 -3.5921997457307526" fill="#ff2904" stroke="none" /><line stroke="#e1ed5e" stroke-width="0.3" x1="102.19456741930631" x2="102.32365962044197" y1="184.97166512339345" y2="189.96999836594603" /><path d="M 102.22038585953345 185.97133177190398 a86.0,86.0 0 0,1 -42.740103519485714,-10.115201625700543" fill="none" id="id55" stroke="none" /><text fill="#e1ed5e" style="font-size:6.75px; font-family:Arial;" text-anchor="middle"><textPath startOffset="22.20632615414155" xlink:href="#id55">July</textPath></text><path d="M 100.54218724476979 120.99299961872073 l 0.13239931680108355 5.126381769280008 a26.128091226128472,26.128091226128472 0 0,0 -0.44970216168021604,0.007742030538417788 l -0.044137465228199564 -5.127901277097585" fill="#ff3f05" stroke="none" /><path d="M 100.18074693466247 120.99922214144158 l 0.06169316680240193 7.167526888973001 a28.167792390337564,28.167792390337564 0 0,0 -0.48488020292970985,0.0 l 0.061693166802397 -7.167526888973001" fill="#ff5b08" stroke="none" /><path d="M 99.45781275523022 120.99299961872073 l -0.41274451071875085 15.981094058800622 a36.98642315677153,36.98642315677153 0 0,0 -0.6363067595662504,-0.02191569137321432 l 0.6877716219596443 -15.971621569001314" fill="#ffcf13" stroke="none" /><path d="M 98.73552117531835 120.96189622390904 l -0.4356940702936834 7.222717936117343 a28.235847131303995,28.235847131303995 0 0,0 -0.48489990269055433,-0.03344153629241099 l 0.5599567337631678 -7.214148055308647" fill="#ff5c08" stroke="none" /><path d="M 98.37488393609728 120.93702456842531 l -0.5982230956202228 7.707149002220322 a28.730330951166266,28.730330951166266 0 0,0 -0.4927329497727899,-0.04251507221852149 l 0.7308003631345543 -7.695709677723137" fill="#ff6309" stroke="none" /><path d="M 97.65516085044442 120.86867818915974 l -3.744191284865419 33.32267930502701 a54.53237129168376,54.53237129168376 0 0,0 -0.9319129815507137,-0.11284168389681414 l 4.317231689467522 -33.25329209240484" fill="#66ff29" stroke="none" /><path d="M 96.93821686468263 120.77559828337769 l -1.0426011603194394 7.0745255033665035 a28.15093897871339,28.15093897871339 0 0,0 -0.47878599090197627,-0.07477652504766527 l 1.1642230148299328 -7.0555306709717325" fill="#ff5b08" stroke="none" /><path d="M 96.22490169976321 120.6578951692458 l -1.288370746522301 7.050154910962507 a28.166908918708483,28.166908918708483 0 0,0 -0.47619832683575575,-0.09126454269964025 l 1.409536687929752 -7.026933169914399" fill="#ff5b08" stroke="none" /><path d="M 95.16358092515715 120.4354850818985 l -3.5092276977146044 14.827658471254784 a36.237261393524136,36.237261393524136 0 0,0 -0.6057605515284913,-0.14888120548470685 l 3.7639415339863063 -14.765056007456048" fill="#ffc612" stroke="none" /><path d="M 94.11515582081647 120.15858648285463 l -0.24562296430550673 0.8413836657973556 a21.876502774476396,21.876502774476396 0 0,0 -0.36057167057017503,-0.10863728652827816 l 0.2600696093159276 -0.8370310101633518" fill="#ff0200" stroke="none" /><path d="M 93.76903079525671 120.05430185196036 l -2.505784464513143 8.064838129683828 a29.4451506700945,29.4451506700945 0 0,0 -0.4827303269664157,-0.15455500657335952 l 2.6442361365704987 -8.020510276450763" fill="#ff6d0a" stroke="none" /><path d="M 93.08242187328487 119.8279376855182 l -1.3974494356827356 4.005526185873016 a25.242299488603372,25.242299488603372 0 0,0 -0.40902194098561817,-0.14666071573382444 l 1.4661909372980806 -3.9808779290992344" fill="#ff3204" stroke="none" /><path d="M 92.7421414339146 119.70592522655815 l -2.7666644699267517 7.511813942767069 a29.005109680691753,29.005109680691753 0 0,0 -0.4670233968169563,-0.1765882870726416 l 2.895558087503991 -7.463077405587795" fill="#ff6709" stroke="none" /><path d="M 92.06813273071674 119.44442032107085 l -0.29241921033846824 0.7168453332289051 a21.774193920375918,21.774193920375918 0 0,0 -0.3458245294705814,-0.14455468136590333 l 0.304715199306512 -0.7117056088430286" fill="#ff0100" stroke="none" /><path d="M 91.07499286063937 119.00905698771935 l -3.820202684280228 8.136514559171939 a29.988705007986344,29.988705007986344 0 0,0 -0.4653780507228785,-0.22340974532455335 l 3.9596934030033486 -8.069550537347823" fill="#ff740a" stroke="none" /><line stroke="#e1ed5e" stroke-width="0.3" x1="58.666819895761336" x2="56.23545636021788" y1="174.27360380694188" y2="178.64263932499728" /><path d="M 58.180547188652646 175.14741091055294 a86.0,86.0 0 0,1 -31.652253787137756,-30.449443065178592" fill="none" id="id56" stroke="none" /><text fill="#e1ed5e" style="font-size:6.75px; font-family:Arial;" text-anchor="middle"><textPath startOffset="22.20632615414155" xlink:href="#id56">August</textPath></text><path d="M 89.1626897886671 117.98757091392108 l -2.2447585445845433 3.7258095152725716 a25.349781312615722,25.349781312615722 0 0,0 -0.37182190102156687,-0.2284033803678738 l 2.308559645538419 -3.6866176680763196" fill="#ff3404" stroke="none" /><path d="M 88.8546689885994 117.79835938074946 l -2.4796302943879223 3.95980622430735 a25.67211212739052,25.67211212739052 0 0,0 -0.37251236881465527,-0.2377550185902328 l 2.547424465249501 -3.916536776893313" fill="#ff3805" stroke="none" /><path d="M 88.24862548938628 117.40417183066458 l -9.14523327353671 13.54439101403736 a37.34276046353672,37.34276046353672 0 0,0 -0.5296325768209971,-0.3642861157851544 l 9.377022734980597 -13.384964108887106" fill="#ffd413" stroke="none" /><path d="M 87.65650970185807 116.9893568818739 l -3.342610282663527 4.600708360239119 a26.68678827790714,26.68678827790714 0 0,0 -0.3693134173722617,-0.2732092371351547 l 3.421308670454353 -4.5424891743641975" fill="#ff4706" stroke="none" /><path d="M 87.36589467227662 116.77436683061367 l -4.317369598359034 5.732193891663852 a28.176191682254817,28.176191682254817 0 0,0 -0.3849019016237944,-0.29512636510604967 l 4.415400228476315 -5.657028184730436" fill="#ff5b08" stroke="none" /><path d="M 86.79598089348748 116.32954008644616 l -4.462735241161449 5.519108494761155 a28.097644990392876,28.097644990392876 0 0,0 -0.373471049255492,-0.30734124775768223 l 4.55707641896163 -5.441472128146292" fill="#ff5a08" stroke="none" /><path d="M 86.24171649860922 115.8653595955263 l -12.14527109749427 14.005314930995615 a39.5379733614006,39.5379733614006 0 0,0 -0.5103366681039648,-0.45031277377479684 l 12.384550118504823 -13.79417901544853" fill="#ffef16" stroke="none" /><path d="M 85.70375840098266 115.38237550388516 l -4.433480680864512 4.770307227248172 a27.512417522697312,27.512417522697312 0 0,0 -0.3441202948805122,-0.3253872177153494 l 4.514936810135841 -4.6932853727868915" fill="#ff5207" stroke="none" /><path d="M 85.44109423537348 115.13401014063109 l -6.100683465690576 6.3416720272253295 a29.799724021208995,29.799724021208995 0 0,0 -0.3666076247651206,-0.35880272150945347 l 6.208941042831491 -6.235719202793307" fill="#ff710a" stroke="none" /><path d="M 84.9287848128048 114.62390073753433 l -5.4319671151999485 5.270746049046239 a28.568819634140464,28.568819634140464 0 0,0 -0.33941587302639303,-0.35587618590139464 l 5.521889539605299 -5.176462746562344" fill="#ff6108" stroke="none" /><path d="M 84.43433777217949 114.09645910891817 l -8.2164322949955 7.440904227035649 a32.08498152340192,32.08498152340192 0 0,0 -0.3672067318260109,-0.41256065593836366 l 8.34329787646985 -7.298369401356421" fill="#ff900d" stroke="none" /><path d="M 83.95833913139862 113.55231037782056 l -5.812318753493771 4.910361115808977 a28.608856391065885,28.608856391065885 0 0,0 -0.31456663710326094,-0.3789157786678098 l 5.895981390490569 -4.809584080027406" fill="#ff6109" stroke="none" /><path d="M 83.72743513129214 113.27417163493432 l -7.346234697805323 5.992612783292662 a30.480431013710373,30.480431013710373 0 0,0 -0.3281466421451149,-0.4094133909288423 l 7.448299252005299 -5.86527155878556" fill="#ff7b0b" stroke="none" /><path d="M 83.28015986056508 112.70617746262583 l -7.544534703563815 5.733439794697754 a30.475881793938893,30.475881793938893 0 0,0 -0.3138126702605555,-0.42040335434766013 l 7.642108640519455 -5.602723560840786" fill="#ff7a0b" stroke="none" /><path d="M 82.85270091963577 112.12312394758628 l -9.73795726265393 6.88472641307333 a32.925907488830525,32.925907488830525 0 0,0 -0.3232055571719537,-0.4656017109157287 l 9.85502372698802 -6.716083439970589" fill="#ff9b0e" stroke="none" /><path d="M 82.44556493220864 111.52570212397912 l -4.435410435764408 2.9121540672080917 a26.305987848162154,26.305987848162154 0 0,0 -0.2452659278444136,-0.3806581666564447 l 4.484881226985867 -2.8353743006301984" fill="#ff4106" stroke="none" /><path d="M 82.24976979558568 111.22182372390057 l -6.213755486332422 3.928381092978802 a28.351390022002615,28.351390022002615 0 0,0 -0.25723534827412325,-0.4147452869358784 l 6.280455474274502 -3.8208394746776597" fill="#ff5e08" stroke="none" /><line stroke="#e1ed5e" stroke-width="0.3" x1="26.63291911575756" x2="22.317208475507996" y1="142.92168965132927" y2="145.44649492493687" /><path d="M 25.769776987707644 143.4266507060508 a86.0,86.0 0 0,1 -11.730757126820373,-40.83630448921669" fill="none" id="id57" stroke="none" /><text fill="#e1ed5e" style="font-size:6.75px; font-family:Arial;" text-anchor="middle"><textPath startOffset="21.46611528233685" xlink:href="#id57">September</textPath></text><path d="M 81.87401531095188 110.60418214915194 l -5.185098752256692 3.033420394727136 a27.007236333106967,27.007236333106967 0 0,0 -0.2312951211404895,-0.4032825396322293 l 5.236545869549558 -2.9437180092365995" fill="#ff4b07" stroke="none" /><path d="M 81.51974371655577 109.97397251340807 l -8.399917354624119 4.533516393112805 a30.545228255580795,30.545228255580795 0 0,0 -0.24573998568946256,-0.4648474433928867 l 8.476709848538468 -4.388253934633792" fill="#ff7b0b" stroke="none" /><path d="M 81.18737489456691 109.33194174019688 l -5.91773248855446 2.935472030498915 a27.60579698809571,27.60579698809571 0 0,0 -0.20749929300600514,-0.4275100028528097 l 5.967385038175184 -2.8331730716808203" fill="#ff5307" stroke="none" /><path d="M 81.02952815118164 109.00673069616217 l -7.181806683339702 3.4097517038179186 a28.950141754619978,28.950141754619978 0 0,0 -0.20985459148277896,-0.4520081205130103 l 7.239435891662308 -3.285623516026081" fill="#ff6609" stroke="none" /><path d="M 80.73074385275274 108.34839909993369 l -5.293172634306919 2.2932653610686615 a26.768599704681634,26.768599704681634 0 0,0 -0.17953957158382475,-0.42437851209208827 l 5.331863187083051 -2.2018123233104148" fill="#ff4806" stroke="none" /><path d="M 80.45479744820244 107.68017299344265 l -14.061616278109371 5.525429848940442 a36.10825692687123,36.10825692687123 0 0,0 -0.22233353212151188,-0.5804426943450053 l 14.15464408982439 -5.282563587762279" fill="#ffc412" stroke="none" /><path d="M 80.20201598880116 107.00284435728193 l -7.5170690770146535 2.6589002566874465 a28.973460859853926,28.973460859853926 0 0,0 -0.1622640312583959,-0.4716152289462821 l 7.561723939216278 -2.5291123246518676" fill="#ff6609" stroke="none" /><path d="M 80.0844068197444 106.66101706037122 l -9.381997697057427 3.1379254514206236 a30.892848777084595,30.892848777084595 0 0,0 -0.16433193317064454,-0.5057616853514788 l 9.43462188124432 -2.975964866091341" fill="#ff800b" stroke="none" /><path d="M 79.86692584326677 105.97154293290107 l -6.651218288694102 1.972775506504083 a27.937618317760162,27.937618317760162 0 0,0 -0.1327800007608628,-0.46222460174817304 l 6.684190926341069 -1.857993429251314" fill="#ff5808" stroke="none" /><path d="M 79.67330655649465 105.27499134158121 l -25.793797245499732 6.693762441720989 a47.648197536946924,47.648197536946924 0 0,0 -0.1991891732370476,-0.7956617323381452 l 25.905197733031837 -6.248772869985452" fill="#b0ff20" stroke="none" /><path d="M 79.50377843672027 104.57218783832718 l -8.937832217661674 1.9938039623759016 a30.157515983685578,30.157515983685578 0 0,0 -0.1086617826946958,-0.5076316733794766 l 8.97082803908081 -1.8396584695802614" fill="#ff760a" stroke="none" /><path d="M 79.4281124754447 104.21870165774334 l -11.380938691868703 2.3339027529074405 a32.61778238598499,32.61778238598499 0 0,0 -0.1080581574656239,-0.5509862169006108 l 11.419426782309994 -2.137652808938875" fill="#ff970d" stroke="none" /><path d="M 79.35854240842038 103.8639653848113 l -8.786400746183883 1.644765065146572 a29.939020650611972,29.939020650611972 0 0,0 -0.09046368443627746,-0.5073683843316145 l 8.813410872959349 -1.4932779300817438" fill="#ff730a" stroke="none" /><path d="M 79.29508885075956 103.50808413554451 l -7.456147785908284 1.2633134994631328 a28.56241368897727,28.56241368897727 0 0,0 -0.07795940208853479,-0.4854532712233745 l 7.476788942358109 -1.1347809985465445" fill="#ff6108" stroke="none" /><path d="M 79.18660465613746 102.79330883721812 l -20.59115958837153 2.7634831845793792 a41.77577176677771,41.77577176677771 0 0,0 -0.08951650855014905,-0.7135346492230714 l 20.635677606168525 -2.4086307810688994" fill="#f4ff19" stroke="none" /><path d="M 79.10278846688536 102.07522291339032 l -7.1235636353152945 0.7074141187485486 a28.158602768822366,28.158602768822366 0 0,0 -0.043746942076490186,-0.482743860440187 l 7.13468517366886 -0.5846888697597954" fill="#ff5b08" stroke="none" /><path d="M 79.07016306316243 101.71520430193888 l -8.003229897850977 0.655866282743911 a29.03005911427158,29.03005911427158 0 0,0 -0.036527336379849146,-0.4983864837991409 l 8.01333379289516 -0.5180066624480094" fill="#ff6709" stroke="none" /><path d="M 79.0235259727143 100.99374915477108 l -5.369993338435061 0.254400541018222 a26.3760160053805,26.3760160053805 0 0,0 -0.017581331807519807,-0.4536960530603061 l 5.3735768030937825 -0.16192724094391917" fill="#ff4206" stroke="none" /><line stroke="#e1ed5e" stroke-width="0.3" x1="15.007084014347285" x2="10.007500721073583" y1="101.09737516637583" y2="101.16192664675087" /><path d="M 14.007167355692545 101.11028546245083 a86.0,86.0 0 0,1 10.666146001902534,-42.60595125391555" fill="none" id="id58" stroke="none" /><text fill="#e1ed5e" style="font-size:6.75px; font-family:Arial;" text-anchor="middle"><textPath startOffset="22.20632615414155" xlink:href="#id58">October</textPath></text><path d="M 79.00175016825051 100.2711162175752 l -17.338604067460658 0.22386516926264877 a38.34004921048877,38.34004921048877 0 0,0 -0.0028402723084450113,-0.6599792568950643 l 17.339888637058607 0.07462356583609087" fill="#ffe015" stroke="none" /><path d="M 79.00486145842228 99.54816195383935 l -6.782236559299741 -0.1459610523400256 a27.783806997188393,27.783806997188393 0 0,0 0.014405646655751137,-0.4780532802984043 l 6.778719218188344 0.2626844800634243" fill="#ff5607" stroke="none" /><path d="M 79.01574976396665 99.18683210126434 l -12.426577927505976 -0.48154659557162316 a33.435904716267544,33.435904716267544 0 0,0 0.02723655643542274,-0.5749206587169313 l 12.416447762837054 0.6953783609115636" fill="#ffa20e" stroke="none" /><path d="M 79.05617556472873 98.46500227214037 l -5.403523489447479 -0.39603064399114873 a26.418016830168646,26.418016830168646 0 0,0 0.03714312301790204,-0.4532401808990688 l 5.39590588261008 0.4889847420979959" fill="#ff4306" stroke="none" /><path d="M 79.12142395522702 97.74499172005258 l -14.298495198414543 -1.544321077935076 a35.38165124493145,35.38165124493145 0 0,0 0.07061107208691457,-0.6049525441856469 l 14.269793773324038 1.7902173604455847" fill="#ffbb11" stroke="none" /><path d="M 79.21141760316559 97.0276538004421 l -9.136869753989052 -1.3063873029293422 a30.229790717378968,30.229790717378968 0 0,0 0.0780851423324332,-0.5144835254567875 l 9.113028718217317 1.463469940778222" fill="#ff770b" stroke="none" /><path d="M 79.26566170972629 96.67025291283419 l -11.365172611925411 -1.8251438685866892 a32.51079053062382,32.51079053062382 0 0,0 0.09348886288811112,-0.5517765608667398 l 11.332071887517076 2.020506217769257" fill="#ff960d" stroke="none" /><path d="M 79.3925641242962 95.95851677861259 l -5.3085453803992415 -1.0410997862258036 a26.409671230364886,26.409671230364886 0 0,0 0.09132804378107665,-0.4453479759711063 l 5.28983804070317 1.1323234183603124" fill="#ff4306" stroke="none" /><path d="M 79.54389044137918 95.25157060432595 l -61.3683286758625 -14.245288187022146 a84.0,84.0 0 0,0 0.3390687989567409,-1.4056590733624128 l 61.114027076644945 15.299532492043955" fill="#4dd2ff" stroke="none" /><path d="M 79.71946130924805 94.55025226153421 l -8.631125427719777 -2.3193395894153332 a29.937318517321636,29.937318517321636 0 0,0 0.1380156422021617,-0.49651569740618606 l 8.589923014951255 2.4675665902404615" fill="#ff730a" stroke="none" /><path d="M 79.81627453868168 94.20196356495316 l -11.137013285569735 -3.1992512448252692 a32.58741875701715,32.58741875701715 0 0,0 0.15951402269393863,-0.5378019858555602 l 11.080293365764089 3.3904826174273683" fill="#ff970d" stroke="none" /><path d="M 80.02781315780177 93.51064311812611 l -4.979453211887363 -1.6179224250124105 a26.23570694966147,26.23570694966147 0 0,0 0.14325034088851918,-0.428300286009129 l 4.950865577227072 1.7033958139438619" fill="#ff4006" stroke="none" /><path d="M 80.2630227832202 92.82701384747504 l -19.453819669772233 -7.070078542035268 a41.69872243242477,41.69872243242477 0 0,0 0.25097748480013055,-0.6724948811094216 l 19.329237596470474 7.403896560174031" fill="#f5ff19" stroke="none" /><path d="M 80.52162464483688 92.15188598940014 l -4.773697749019045 -1.9233906064200903 a26.14661263588533,26.14661263588533 0 0,0 0.17179359548283013,-0.41601181800743164 l 4.739882466650015 2.005276994880833" fill="#ff3f05" stroke="none" /><path d="M 80.65960295795068 91.81776055985345 l -8.013121812165968 -3.3900690449969977 a29.700729239923334,29.700729239923334 0 0,0 0.2032509864868628,-0.4691312997754463 l 7.9535801158364245 3.5274994893590432" fill="#ff700a" stroke="none" /><path d="M 80.95270993114464 91.15688171328213 l -4.800195882070574 -2.2285952401163316 a26.29230736546135,26.29230736546135 0 0,0 0.19411461057185464,-0.4088548752619858 l 4.761123077656968 2.3108925310188493" fill="#ff4106" stroke="none" /><path d="M 81.10775173730289 90.83032412892265 l -2.5372087306823854 -1.231477659732151 a23.820277534121473,23.820277534121473 0 0,0 0.18221376545368503,-0.36733183231994476 l 2.5156349522752874 1.2749690805510574" fill="#ff1e03" stroke="none" /><path d="M 81.26839172434947 90.50648371742162 l -27.237959309995247 -13.804688119054045 a51.53646740271881,51.53646740271881 0 0,0 0.40785117764681644,-0.7878386587911322 l 26.996298699188316 14.271499500105513" fill="#85ff25" stroke="none" /><line stroke="#e1ed5e" stroke-width="0.3" x1="26.266209847984243" x2="21.928928074336255" y1="57.711370442889674" y2="55.22380399835377" /><path d="M 25.398753493254645 57.213857153982495 a86.0,86.0 0 0,1 29.58750427330803,-30.492523968695096" fill="none" id="id59" stroke="none" /><text fill="#e1ed5e" style="font-size:6.75px; font-family:Arial;" text-anchor="middle"><textPath startOffset="21.46611528233685" xlink:href="#id59">November</textPath></text><path d="M 81.78341655067845 89.55222093294921 l -1.381265118135395 -0.7921986484155944 a22.59231655933394,22.59231655933394 0 0,0 0.19638137234334693,-0.33567942329191797 l 1.367424071321723 0.8158574840614041" fill="#ff0d01" stroke="none" /><path d="M 81.96595687620814 89.24020034530311 l -3.035992057106624 -1.8113889416523599 a24.535304466203012,24.535304466203012 0 0,0 0.21951409968748425,-0.36082346253999464 l 3.004362159132923 1.863380177399429" fill="#ff2803" stroke="none" /><line stroke="#e1ed5e" stroke-width="0.3" x1="56.762969772571076" x2="54.21961505331055" y1="26.818313649435495" y2="22.513508569990535" /><path d="M 56.25429882871897 25.957352633546506 a86.0,86.0 0 0,1 42.265352541879196,-11.944610805530505" fill="none" id="id60" stroke="none" /><text fill="#e1ed5e" style="font-size:6.75px; font-family:Arial;" text-anchor="middle"><textPath startOffset="22.20632615414155" xlink:href="#id60">December</textPath></text><path d="M 89.63071344664047 81.73862282372117 l -0.3600518420975753 -0.6340882236905272 a21.729181187648766,21.729181187648766 0 0,0 0.326844042922244,-0.18188835601969308 l 0.3490837101032857 0.6401919772704049" fill="#ff0000" stroke="none" /><path d="M 89.94658935756843 81.56283822128135 l -8.894111908497699 -16.311099383814536 a39.57840654495308,39.57840654495308 0 0,0 0.6009414751130873,-0.3210021240841859 l 8.612025386856306 16.46178023440047" fill="#ffef16" stroke="none" /></svg>